<svg xmlns="http://www.w3.org/2000/svg" xmlns:xlink="http://www.w3.org/1999/xlink" width="80.759" height="81.376" viewBox="0 0 80.759 81.376">
  <defs>
    <clipPath id="clip-path">
      <rect id="長方形_17" data-name="長方形 17" width="80.759" height="81.376" fill="#23b1c1"/>
    </clipPath>
  </defs>
  <g id="グループ_23" data-name="グループ 23" clip-path="url(#clip-path)">
    <path id="パス_11950" data-name="パス 11950" d="M58.474,53.627c.052-.17.112-.331.151-.5a3.976,3.976,0,0,0,.152-.86.225.225,0,0,1,.023-.086.572.572,0,0,0,.034-.238v-1.12a.572.572,0,0,0-.039-.266.2.2,0,0,1-.018-.089,4.629,4.629,0,0,0-.131-.8,6.279,6.279,0,0,0-.31-.977,7.891,7.891,0,0,0-.436-.963,10.891,10.891,0,0,0-.734-1.176,4.93,4.93,0,0,0-.591-.721,1.128,1.128,0,0,1-.1-.118c-.05-.062-.1-.126-.154-.185-.17-.172-.345-.339-.514-.514-.126-.13-.285-.22-.412-.353a4.059,4.059,0,0,0-.41-.353c-.143-.112-.3-.207-.439-.319a9.657,9.657,0,0,0-.835-.541c-.3-.185-.614-.344-.929-.5a12.444,12.444,0,0,0-1.59-.651c-.143-.049-.287-.094-.429-.141a1.657,1.657,0,0,0-.23-.075c-.355-.073-.7-.185-1.06-.23-.18-.071-.379-.034-.562-.1a.5.5,0,0,0-.149-.008.46.46,0,0,1-.151-.013,1.163,1.163,0,0,0-.447-.047.981.981,0,0,1-.327-.039.508.508,0,0,0-.18-.018c-.241,0-.483,0-.726,0a.414.414,0,0,0-.149.011,1.316,1.316,0,0,1-.449.045.7.7,0,0,0-.326.045.12.12,0,0,1-.058.01c-.185-.018-.355.076-.536.066-.175.05-.355.071-.532.109a3.81,3.81,0,0,0-.378.1,5.336,5.336,0,0,0-.548.167c-.183.083-.376.139-.562.217s-.344.167-.517.246a5.733,5.733,0,0,0-.882.522c-.172.122-.344.245-.509.376a.724.724,0,0,0-.251.331c-.112.3-.241.6-.363.894a.34.34,0,0,1-.021.057c-.156.295-.256.613-.384.919-.115.279-.241.553-.358.83-.092.224-.178.449-.267.674a1.045,1.045,0,0,1-.052.141c-.131.24-.207.5-.321.747a7.078,7.078,0,0,0-.3.758c-.01.028-.024.055-.037.083-.181.381-.329.778-.5,1.167-.113.267-.22.54-.332.809-.12.287-.238.575-.352.865-.065.169-.151.327-.217.5-.144.365-.282.731-.442,1.089-.2.449-.369.914-.566,1.366-.186.434-.365.87-.544,1.308a7.052,7.052,0,0,1-.321.747.346.346,0,0,0-.023.057c-.156.457-.381.886-.538,1.343-.185.379-.313.784-.5,1.163-.029.063-.049.133-.075.2-.181.436-.365.872-.546,1.308-.112.269-.219.541-.329.812-.057.139-.113.279-.172.416-.047.112-.1.222-.143.334-.164.4-.324.8-.489,1.2-.2.473-.4.943-.593,1.42a8.157,8.157,0,0,0-.326.812c-.117.224-.2.459-.3.692-.118.3-.248.595-.365.894-.092.233-.2.46-.293.694-.105.261-.227.517-.321.783-.068.19-.167.365-.238.553-.138.368-.295.728-.444,1.091-.17.408-.35.812-.509,1.225-.1.264-.235.512-.361.763a6.913,6.913,0,0,1-.685,1.063,3.773,3.773,0,0,1-.4.45l-.044.042c-.112.088-.162.225-.287.306a3.418,3.418,0,0,0-.287.267,6.405,6.405,0,0,1-.865.653c-.112.066-.225.133-.335.2a7.312,7.312,0,0,1-1.06.507,7.5,7.5,0,0,1-1.065.332c-.214.055-.436.073-.648.134a.662.662,0,0,1-.151.006.773.773,0,0,0-.3.041.5.5,0,0,1-.178.018c-.3,0-.606,0-.907,0a.544.544,0,0,1-.238-.036.182.182,0,0,0-.088-.019,3.724,3.724,0,0,1-.536-.063.516.516,0,0,1-.089-.01,9.678,9.678,0,0,1-1.471-.444c-.335-.141-.655-.311-.98-.467a1.275,1.275,0,0,1-.175-.118c-.23-.162-.475-.3-.694-.481-.047-.039-.1-.071-.141-.113-.073-.07-.154-.128-.23-.194a3.789,3.789,0,0,1-.632-.647.592.592,0,0,0-.057-.07,6.451,6.451,0,0,1-.723-.964c-.156-.245-.287-.507-.42-.766a3.8,3.8,0,0,1-.2-.475c-.12-.352-.25-.7-.34-1.061a6.212,6.212,0,0,1-.117-.619,3.12,3.12,0,0,1-.047-.6.905.905,0,0,0-.019-.209,1.683,1.683,0,0,1,0-.63.767.767,0,0,0,.021-.18,4.9,4.9,0,0,1,.13-1.105c.058-.254.126-.507.2-.755a3.156,3.156,0,0,1,.361-.826.558.558,0,0,1,.165-.172c.05-.032.1-.07.151-.1a.685.685,0,0,1,.311-.11c.049,0,.1-.024.147-.031a.469.469,0,0,1,.117,0c.05.006.1.024.147.032a1.018,1.018,0,0,1,.579.3.8.8,0,0,1,.214.36c.023.076.036.157.062.233a.464.464,0,0,1,0,.266c-.073.293-.165.58-.264.865a1.1,1.1,0,0,0-.088.319c0,.112-.078.209-.062.324a.058.058,0,0,1,0,.029,2.056,2.056,0,0,0-.053.66c0,.172,0,.344,0,.514a1.318,1.318,0,0,0,.05.509,4.3,4.3,0,0,0,.235.93c.01.028.016.057.024.088a3.076,3.076,0,0,0,.313.75c.138.258.3.5.459.744.115.1.183.24.288.348.147.152.292.308.45.449.18.159.369.308.566.449a4.249,4.249,0,0,0,.418.241c.052.031.107.055.16.083a5.284,5.284,0,0,0,1.146.462,3.313,3.313,0,0,0,.713.12,1.094,1.094,0,0,1,.18.015,3.833,3.833,0,0,0,.872.039,3.039,3.039,0,0,1,.567-.075c.19-.034.374-.081.559-.128a5.558,5.558,0,0,0,1.3-.546,3.57,3.57,0,0,0,.624-.421,5.251,5.251,0,0,0,.546-.476c.052-.06.1-.122.156-.183s.075-.1.115-.139a3.442,3.442,0,0,0,.462-.63c.078-.141.157-.28.237-.421a9.3,9.3,0,0,0,.423-.967c.134-.326.258-.655.412-.972l.011-.028q.209-.518.42-1.034c.052-.131.109-.259.162-.391.045-.11.091-.224.136-.335.191-.454.381-.909.572-1.363.05-.122.1-.243.146-.365.173-.418.348-.835.52-1.254.154-.371.3-.747.46-1.115.138-.313.241-.64.387-.948.133-.282.233-.579.366-.86.094-.2.157-.413.25-.614.075-.165.136-.335.207-.5s.133-.337.211-.5c.105-.227.172-.472.28-.7.134-.282.235-.577.361-.862.19-.433.36-.873.54-1.311.039-.092.083-.183.122-.275s.068-.169.1-.251q.216-.532.434-1.061c.071-.177.149-.352.222-.527.152-.373.3-.745.455-1.117.05-.122.11-.238.159-.36.157-.381.311-.763.472-1.142.177-.416.344-.838.519-1.256.157-.379.316-.76.465-1.144.11-.28.243-.553.36-.83.089-.214.172-.431.256-.647.015-.037.023-.078.039-.113.235-.512.447-1.034.645-1.561.13-.24.214-.5.321-.749.063-.149.128-.3.19-.444.22-.53.446-1.057.655-1.59.084-.216.193-.42.272-.638s.169-.431.259-.643a.382.382,0,0,0,.026-.264.623.623,0,0,1-.036-.177,4.5,4.5,0,0,0-.083-.625,4.128,4.128,0,0,0-.138-.588,5.353,5.353,0,0,0-.2-.569c-.065-.18-.133-.358-.214-.532-.029-.063-.053-.13-.079-.2-.016-.037-.026-.076-.045-.112-.126-.228-.246-.462-.384-.684-.084-.138-.157-.284-.253-.41-.115-.154-.216-.316-.335-.465a6.34,6.34,0,0,0-.559-.672,4.863,4.863,0,0,0-.613-.666,1.177,1.177,0,0,0-.3-.253.206.206,0,0,1-.045-.039,4.782,4.782,0,0,0-.365-.314c-.115-.1-.227-.2-.348-.288-.188-.136-.373-.274-.566-.4s-.376-.232-.562-.352a14.732,14.732,0,0,0-1.366-.71,6.319,6.319,0,0,0-.613-.253c-.2-.076-.4-.152-.6-.216-.324-.1-.653-.2-.979-.293-.2-.011-.391-.094-.59-.125s-.378-.063-.567-.084a2.423,2.423,0,0,1-.387-.055.922.922,0,0,0-.212-.008.988.988,0,0,1-.356-.042.6.6,0,0,0-.18-.018h-1.12a.8.8,0,0,0-.267.037.591.591,0,0,1-.178.021,1.661,1.661,0,0,0-.418.044c-.125.036-.263,0-.389.05a5.9,5.9,0,0,0-1.314.322c-.076.028-.152.052-.23.076a6.52,6.52,0,0,0-1.22.517,7.011,7.011,0,0,0-.961.624c-.141.113-.287.219-.429.331a1.594,1.594,0,0,0-.133.123c-.122.12-.24.246-.363.363a4.918,4.918,0,0,0-.428.507,3.531,3.531,0,0,0-.386.575c-.049.088-.1.175-.147.263s-.1.175-.149.263a.432.432,0,0,1-.206.17.375.375,0,0,1-.533-.311.738.738,0,0,1,.039-.295,6.886,6.886,0,0,0,.2-.758,2.325,2.325,0,0,0,.076-.627.579.579,0,0,1,.036-.3.147.147,0,0,0,.013-.06c0-.191,0-.382,0-.574a1.854,1.854,0,0,1-.057-.507c-.019-.16-.036-.321-.068-.478a7.469,7.469,0,0,0-.3-1.136c-.042-.112-.081-.227-.126-.337a10.868,10.868,0,0,0-.533-1.118,9.246,9.246,0,0,0-.731-1.105c-.117-.151-.246-.292-.35-.452a.1.1,0,0,0-.019-.024c-.285-.284-.523-.613-.823-.883-.083-.073-.175-.134-.258-.207s-.152-.162-.24-.228-.175-.135-.261-.206c-.238-.2-.494-.376-.749-.557-.222-.157-.46-.288-.692-.429a12.147,12.147,0,0,0-1.232-.64,9.829,9.829,0,0,0-1.491-.574c-.308-.088-.614-.188-.929-.254-.293-.063-.59-.115-.882-.188-.222,0-.436-.079-.66-.065a.47.47,0,0,1-.151-.008,2.413,2.413,0,0,0-.6-.039c-.332,0-.666,0-1,0a1.357,1.357,0,0,0-.361.029.326.326,0,0,1-.118.015,3.427,3.427,0,0,0-.63.068,3.688,3.688,0,0,0-.619.117c-.115.034-.23.07-.348.1a7.22,7.22,0,0,0-1.311.444,4.513,4.513,0,0,0-.572.272c-.18.112-.373.194-.548.316s-.324.238-.488.355a2.621,2.621,0,0,0-.392.329,1.348,1.348,0,0,1-.141.113,1.943,1.943,0,0,0-.381.384,1.347,1.347,0,0,1-.115.139,5.138,5.138,0,0,0-.766,1.079c-.049.088-.092.18-.144.266a.37.37,0,0,1-.254.2A.887.887,0,0,0,.4,29.74a.725.725,0,0,0-.084-.026.385.385,0,0,1-.258-.193.317.317,0,0,1-.032-.314c.207-.5.433-1,.682-1.479.047-.091.092-.18.136-.271a1.209,1.209,0,0,1,.147-.264.862.862,0,0,0,.089-.156c.188-.381.405-.742.622-1.105.288-.485.6-.956.912-1.423.162-.241.339-.473.512-.707.149-.2.3-.4.452-.6a2.022,2.022,0,0,0,.241-.308c.144-.128.224-.311.373-.434.139-.235.373-.392.523-.622a1.9,1.9,0,0,1,.251-.261.992.992,0,0,0,.144-.154,2.131,2.131,0,0,1,.339-.384c.269-.274.541-.543.813-.812a3.55,3.55,0,0,1,.426-.384,2.235,2.235,0,0,0,.284-.271,1.015,1.015,0,0,1,.206-.177.361.361,0,0,0,.1-.075,4.341,4.341,0,0,1,.543-.478c.138-.115.274-.233.423-.339.113-.079.219-.175.329-.263.344-.271.856-.661,1.28-.956.347-.241.69-.486,1.045-.715q.306-.194.616-.381t.621-.371c.269-.157.541-.31.812-.463.3-.17.6-.321.909-.476.421-.217.846-.428,1.27-.635.2-.1.405-.18.608-.267.222-.1.446-.185.664-.285a6.943,6.943,0,0,1,.645-.258c.228-.078.454-.162.674-.263.036-.016.076-.024.113-.037.447-.156.891-.319,1.34-.467.246-.081.5-.159.745-.235.326-.1.66-.178.988-.274.232-.066.46-.139.7-.194.361-.083.718-.191,1.084-.254.248-.044.491-.113.737-.164.156-.032.313-.063.47-.1.253-.06.512-.089.765-.151.135-.032.275-.045.415-.066a6.4,6.4,0,0,1,.8-.115c.185-.055.382-.029.566-.1.2,0,.4-.075.6-.065a.06.06,0,0,0,.029,0,1.857,1.857,0,0,1,.509-.055.227.227,0,0,0,.088-.016.657.657,0,0,1,.267-.037,1.075,1.075,0,0,0,.358-.042.78.78,0,0,1,.24-.018,1,1,0,0,0,.358-.041.41.41,0,0,1,.149-.016c.12,0,.241,0,.363,0a.659.659,0,0,0,.18-.015,1.119,1.119,0,0,1,.387-.039c.162,0,.324,0,.485,0a1.17,1.17,0,0,0,.3-.029.907.907,0,0,1,.24-.024q1.6,0,3.205,0a.989.989,0,0,1,.3.037,1.23,1.23,0,0,0,.207.031.1.1,0,0,1,.066.091.4.4,0,0,1,0,.089c-.044.186-.089.373-.138.557a3.1,3.1,0,0,0-.11.9c0,.141,0,.282,0,.423a2,2,0,0,0,.1.624,3.318,3.318,0,0,0,.308.754,3.91,3.91,0,0,0,.355.523c.039.045.073.1.11.143a.665.665,0,0,0,.1.115,6.233,6.233,0,0,0,.762.588,3.736,3.736,0,0,0,.69.3,3.279,3.279,0,0,0,.352.088,2.26,2.26,0,0,0,.355.062,6.719,6.719,0,0,0,.788,0,3.587,3.587,0,0,0,.619-.126,3.455,3.455,0,0,0,1.126-.564,3.658,3.658,0,0,0,.47-.425,2.676,2.676,0,0,0,.206-.259,3.2,3.2,0,0,0,.428-.69,5.525,5.525,0,0,0,.194-.572,3.118,3.118,0,0,0,.113-1.045,4.761,4.761,0,0,0-.071-.476c-.013-.089-.021-.18-.031-.269,0-.023.039-.055.063-.052.109.018.217.034.326.057.344.07.687.147,1.032.216.314.062.627.134.94.207.4.092.8.178,1.2.288.348.1.7.181,1.047.284.288.084.583.152.865.259.386.076.747.237,1.128.332.29.075.57.191.856.29.266.092.532.188.8.28a1.025,1.025,0,0,1,.225.086.292.292,0,0,0,.081.041c.321.088.622.228.935.339.029.01.057.021.086.029a.136.136,0,0,0,.193-.086c.162-.391.329-.778.481-1.173a3.533,3.533,0,0,0,.209-.5c.172-.374.316-.762.472-1.142.125-.308.259-.611.389-.917.032-.075.06-.149.089-.225.12-.31.267-.606.381-.919.076-.207.165-.41.253-.614.047-.11.105-.216.159-.324a.925.925,0,0,1,.528-.473.763.763,0,0,1,.585-.047,1.035,1.035,0,0,1,.671.426.623.623,0,0,1,.169.379.144.144,0,0,0,0,.06.711.711,0,0,1-.058.58c-.141.366-.29.729-.441,1.091-.071.177-.154.35-.228.525-.049.11-.091.224-.138.335-.122.3-.24.6-.365.893-.138.324-.269.651-.4.977-.076.186-.156.369-.232.556-.113.28-.245.551-.342.838a4.437,4.437,0,0,0-.183.446c0,.019-.015.037-.021.057a.18.18,0,0,0,.071.186.549.549,0,0,0,.133.07,1.88,1.88,0,0,1,.331.146.619.619,0,0,0,.083.037,5.559,5.559,0,0,1,.684.316c.118.055.243.1.361.154.173.083.344.167.515.253.387.193.775.389,1.162.583a.606.606,0,0,1,.107.055,4.591,4.591,0,0,0,.58.321c.251.146.514.274.763.428.178.11.369.2.553.306.088.05.17.109.256.159.366.211.728.428,1.087.65.18.112.355.228.536.337.517.314,1.008.664,1.512.995.295.193.572.412.864.608.392.264.757.564,1.142.838.2.139.381.3.57.446.3.235.6.47.891.721.136.117.284.222.426.334.047.037.089.079.133.122a1.131,1.131,0,0,0,.207.175.627.627,0,0,1,.136.118,2.01,2.01,0,0,0,.275.235c.1.065.092.1.058.206-.094.275-.19.553-.274.831-.152.51-.316,1.018-.441,1.535-.039.167-.063.337-.091.506a1.157,1.157,0,0,0-.013.151c0,.222,0,.444,0,.666a2.073,2.073,0,0,0,.19.788c.079.173.167.345.259.512a1.385,1.385,0,0,0,.235.314,1.884,1.884,0,0,1,.133.164.4.4,0,0,0,.055.07,4.3,4.3,0,0,0,.655.48,2.246,2.246,0,0,0,.773.326,1.3,1.3,0,0,0,.416.062.652.652,0,0,1,.211.019.449.449,0,0,0,.295,0,.414.414,0,0,1,.149-.016,2.168,2.168,0,0,0,.882-.186,2.455,2.455,0,0,0,.676-.392c.092-.076.2-.138.285-.224a3.98,3.98,0,0,0,.444-.532,1.024,1.024,0,0,1,.076-.091.068.068,0,0,1,.083-.011.67.67,0,0,1,.13.123,1.4,1.4,0,0,0,.193.232c.112.1.18.241.285.352s.186.261.292.381c.285.326.525.685.791,1.026.2.263.392.536.583.805.332.468.65.945.959,1.428.152.237.319.465.459.71.2.348.433.679.611,1.04.133.167.193.376.322.544a.332.332,0,0,1,.032.05c.275.549.583,1.082.848,1.637.055.118.12.233.173.353a4.056,4.056,0,0,1,.277.6,1.663,1.663,0,0,0,.1.217c.045.1.089.2.133.3.021.045.036.094.06.138.172.31.277.647.418.969.131.3.232.621.363.925.044.1.073.209.109.314.118.331.248.66.35.995.138.452.287.9.405,1.358.1.379.2.757.3,1.134.07.263.13.527.188.791.091.423.151.852.256,1.27a1.477,1.477,0,0,0,.068.355c-.011.183.073.353.07.536a2.664,2.664,0,0,0,.049.295.942.942,0,0,0,.044.267.5.5,0,0,1,.018.149.663.663,0,0,0,.006.151,3.173,3.173,0,0,1,.057.538,4.939,4.939,0,0,1,.036.512.421.421,0,0,0,.008.091,2.174,2.174,0,0,1,.041.57,1.69,1.69,0,0,0,.028.361,1.2,1.2,0,0,1,.015.241c0,.826,0,1.654,0,2.481a1.885,1.885,0,0,1-.021.3,2.25,2.25,0,0,0-.021.331,2.167,2.167,0,0,1-.039.541.244.244,0,0,0-.008.091c.013.232-.044.46-.047.692a.463.463,0,0,1-.024.149.788.788,0,0,0-.029.238.513.513,0,0,1-.037.237.125.125,0,0,0-.015.058c.011.193-.075.374-.065.567-.049.225-.071.455-.126.679-.062.254-.1.512-.156.766a.726.726,0,0,1-.015.089c-.066.243-.12.489-.172.736-.042.2-.1.387-.156.582-.19.708-.42,1.4-.664,2.1-.136.389-.292.771-.441,1.157a.447.447,0,0,1-.324.287.321.321,0,0,1-.175,0,.522.522,0,0,1-.384-.387.146.146,0,0,1,0-.088c.028-.086.057-.172.092-.254a3.311,3.311,0,0,0,.194-.6c.034-.157.091-.311.112-.47a3.119,3.119,0,0,0,.079-.627.609.609,0,0,1,.041-.326,1.782,1.782,0,0,0-.008-.572,1.5,1.5,0,0,1-.034-.327.966.966,0,0,0-.041-.36.176.176,0,0,1-.01-.058,4.751,4.751,0,0,0-.175-.917,6.2,6.2,0,0,0-.274-.8c-.162-.4-.368-.783-.562-1.17a2.038,2.038,0,0,0-.109-.18c-.011-.018-.026-.032-.036-.049a11.027,11.027,0,0,0-.77-1.118.256.256,0,0,0-.036-.047c-.241-.23-.421-.514-.671-.737-.112-.1-.216-.212-.322-.319a1.189,1.189,0,0,0-.274-.235.3.3,0,0,1-.071-.057,5.242,5.242,0,0,0-.719-.593,5.614,5.614,0,0,0-.723-.491,2.081,2.081,0,0,1-.178-.115c-.042-.028-.081-.06-.125-.084-.413-.23-.826-.462-1.257-.658-.228-.1-.463-.193-.7-.285-.206-.081-.413-.159-.622-.23-.428-.149-.873-.232-1.306-.36-.267-.037-.527-.125-.8-.138a2.683,2.683,0,0,0-.326-.058.945.945,0,0,1-.3-.036.9.9,0,0,0-.209-.015c-.152,0-.3,0-.454,0s-.3-.036-.45-.039-.277.049-.42.042-.263,0-.394,0a1.076,1.076,0,0,0-.36.037.176.176,0,0,1-.058.01,4.54,4.54,0,0,0-.862.13c-.256.047-.506.126-.757.191-.117.031-.233.065-.35.1s-.224.091-.337.13a4.79,4.79,0,0,0-.719.31c-.241.126-.488.243-.721.382a6.3,6.3,0,0,0-.716.5,3.731,3.731,0,0,0-.457.391c-.128.143-.274.269-.4.41-.1.11-.2.23-.287.35a5.964,5.964,0,0,0-.7,1.123.353.353,0,0,1-.357.225.668.668,0,0,1-.151-.011.286.286,0,0,1-.2-.165c-.029-.073-.05-.151-.073-.224" transform="translate(0 4.776)" fill="#23b1c1"/>
    <path id="パス_11951" data-name="パス 11951" d="M41.3,7.866a2.363,2.363,0,0,1-.344,1.2,2.3,2.3,0,0,1-.423.548,2.616,2.616,0,0,1-.611.434,2.41,2.41,0,0,1-.65.238,1.609,1.609,0,0,1-.177.031.931.931,0,0,0-.266.044.306.306,0,0,1-.178.011,3.334,3.334,0,0,0-.415-.063,2.482,2.482,0,0,1-.713-.238c-.1-.05-.193-.105-.287-.164a2.151,2.151,0,0,1-.532-.488,2.673,2.673,0,0,1-.575-1.248.736.736,0,0,1-.015-.18,2.857,2.857,0,0,1,.113-1.045,9.934,9.934,0,0,1,.423-1.442c.065-.306.2-.591.285-.89.083-.279.172-.557.279-.828.138-.347.246-.7.384-1.047.089-.224.17-.45.263-.672.136-.326.253-.658.381-.985.138-.355.279-.71.42-1.065,0-.008.015-.021.021-.019s.044.006.052.018a1.361,1.361,0,0,1,.079.162c.105.272.222.54.327.81l.271.7q.221.576.441,1.152c.062.16.118.322.175.483.25.7.494,1.4.728,2.11.126.381.24.765.345,1.152.081.29.141.587.194.883a2.26,2.26,0,0,1,0,.392" transform="translate(22.403 0)" fill="#23b1c1"/>
    <path id="パス_11952" data-name="パス 11952" d="M26.5,11.882a.2.2,0,0,0-.031,0c-.094.013-.172-.049-.263-.053a.715.715,0,0,1-.269-.026.7.7,0,0,0-.207-.034.639.639,0,0,1-.177-.028.837.837,0,0,0-.207-.032.739.739,0,0,1-.18-.023.981.981,0,0,0-.238-.032c-.079-.006-.159-.019-.238-.031a1.5,1.5,0,0,0-.149-.019,1.424,1.424,0,0,1-.389-.041c-.284.01-.557-.076-.839-.073a.338.338,0,0,1-.091-.006,1.91,1.91,0,0,0-.48-.034,1.161,1.161,0,0,1-.269-.031c-.1-.023-.2-.028-.3-.041-.024,0-.052-.045-.047-.068a.2.2,0,0,1,0-.031,1.471,1.471,0,0,1,.042-.144c.159-.434.295-.877.436-1.317a3.834,3.834,0,0,1,.136-.366c.073-.177.135-.357.194-.538.039-.113.084-.225.128-.339a.559.559,0,0,0,.023-.055c.075-.3.214-.583.31-.88.052-.162.118-.319.18-.48s.122-.3.173-.449c.1-.3.233-.6.345-.9.052-.141.112-.28.17-.42,0-.011.031-.016.049-.019s.019.008.023.015a1.071,1.071,0,0,1,.079.162c.086.3.227.58.334.872s.2.567.313.848q.263.673.506,1.355c.162.454.326.906.481,1.363.136.4.256.8.394,1.2.068.2.123.4.177.6a.076.076,0,0,1-.066.084l-.029,0Z" transform="translate(13.73 3.334)" fill="#23b1c1"/>
    <path id="パス_11953" data-name="パス 11953" d="M41.752,18.693a.552.552,0,0,1,.039-.246c.083-.216.151-.436.238-.65s.147-.416.224-.624c.105-.282.217-.562.321-.844.109-.3.245-.595.334-.9A.532.532,0,0,1,43,15.238c.016-.019.066-.019.078,0a2.761,2.761,0,0,1,.134.3c.057.172.128.337.193.506.1.263.188.53.295.791.147.361.258.739.405,1.1l.008.028c.2.621.446,1.228.637,1.852.13.423.259.844.384,1.267a7.115,7.115,0,0,1,.23,1.058.241.241,0,0,1-.008.058.036.036,0,0,1-.047.028.051.051,0,0,1-.028-.01,1.994,1.994,0,0,1-.345-.374.989.989,0,0,0-.16-.18l-1.345-1.347c-.264-.264-.527-.527-.791-.789a1.853,1.853,0,0,0-.407-.357c-.165-.162-.332-.322-.483-.485" transform="translate(25.905 9.446)" fill="#23b1c1"/>
  </g>
</svg>
